<svg xmlns="http://www.w3.org/2000/svg" viewBox="0 0 960 600" width="960" height="600" font-family="Segoe UI, system-ui, sans-serif" role="img" aria-label="멀티 터미널 작업기 메인 화면 (와이어프레임 목업)">
  <rect width="960" height="600" rx="12" fill="#161918" stroke="#343b38"/>

  <!-- ══ sidebar ══ -->
  <path d="M1 13a12 12 0 0 1 12-12h251v598H13a12 12 0 0 1-12-12z" fill="#1c201f"/>
  <line x1="264" y1="1" x2="264" y2="599" stroke="#343b38"/>

  <!-- brand -->
  <g transform="translate(18,20) scale(0.8)">
    <rect x="1.32" y="1.32" width="21.36" height="21.36" rx="5.4" fill="#252b29"/>
    <g fill="none" stroke="#4fb7a4" stroke-width="2.6" stroke-linecap="round" stroke-linejoin="round">
      <polyline points="6.6,6.8 12.2,12.1 6.6,17.4"/>
      <line x1="13.4" y1="17.4" x2="18.4" y2="17.4"/>
    </g>
  </g>
  <text x="44" y="36" font-size="13" font-weight="700" fill="#e7ebe8">멀티 터미널 작업기</text>

  <!-- projects heading + actions -->
  <text x="18" y="72" font-size="10" font-weight="600" fill="#717b76" letter-spacing="1">PROJECTS</text>
  <g stroke="#9aa49f" stroke-width="1.3" fill="none" stroke-linecap="round">
    <path d="M215 66a6 6 0 1 0 1.8-4.3M215.8 58v4h4" transform="translate(0,4)"/>
    <path d="M243 68v-10M238 63h10"/>
  </g>

  <!-- layer 1: 업무 프로젝트 (taller row) -->
  <rect x="8" y="84" width="248" height="36" rx="6" fill="#22282b"/>
  <text x="22" y="106" font-size="10" fill="#717b76">▾</text>
  <text x="36" y="107" font-size="12" fill="#e7ebe8">🗂</text>
  <text x="56" y="102" font-size="12.5" font-weight="600" fill="#e7ebe8">Nova · 연구소</text>
  <text x="56" y="115" font-size="9.5" fill="#717b76">폴더 3</text>
  <text x="240" y="107" font-size="11" fill="#717b76">✎</text>

  <!-- layer 2: 폴더들 (indented under the work project) -->
  <rect x="20" y="126" width="236" height="30" rx="6" fill="#252b29"/>
  <rect x="20" y="126" width="3" height="30" rx="1.5" fill="#4fb7a4"/>
  <text x="36" y="139" font-size="12" fill="#e7ebe8">📂</text>
  <text x="56" y="139" font-size="12.5" font-weight="600" fill="#e7ebe8">atlas</text>
  <text x="56" y="151" font-size="9.5" font-family="Consolas, monospace" fill="#717b76">C:\work\atlas</text>
  <circle cx="240" cy="141" r="4" fill="#aa8ccc"/>

  <!-- worktree under the selected folder -->
  <text x="52" y="177" font-size="11" fill="#717b76">⑂</text>
  <text x="70" y="177" font-size="11.5" fill="#9aa49f">feature-x</text>

  <rect x="20" y="188" width="236" height="30" rx="6" fill="none"/>
  <text x="36" y="201" font-size="12" fill="#9aa49f">📁</text>
  <text x="56" y="201" font-size="12.5" fill="#9aa49f">dashboard</text>
  <text x="56" y="213" font-size="9.5" font-family="Consolas, monospace" fill="#717b76">C:\work\dashboard</text>
  <circle cx="240" cy="203" r="4" fill="#d8a24a"/>

  <rect x="20" y="222" width="236" height="30" rx="6" fill="none"/>
  <text x="36" y="235" font-size="12" fill="#9aa49f">📁</text>
  <text x="56" y="235" font-size="12.5" fill="#9aa49f">navi</text>
  <text x="56" y="247" font-size="9.5" font-family="Consolas, monospace" fill="#717b76">C:\work\navi</text>

  <!-- another work project, collapsed -->
  <rect x="8" y="262" width="248" height="36" rx="6" fill="none"/>
  <text x="22" y="284" font-size="10" fill="#717b76">▸</text>
  <text x="36" y="285" font-size="12" fill="#9aa49f">🗂</text>
  <text x="56" y="285" font-size="12.5" fill="#9aa49f">미분류</text>
  <text x="240" y="285" font-size="11" fill="#717b76">✎</text>

  <!-- hidden toggle -->
  <rect x="18" y="516" width="11" height="11" rx="2.5" fill="none" stroke="#46504c"/>
  <text x="38" y="526" font-size="10.5" fill="#9aa49f">Show hidden projects</text>

  <!-- update badge -->
  <line x1="1" y1="542" x2="264" y2="542" stroke="#343b38"/>
  <g fill="none" stroke="#9aa49f" stroke-width="1.2" stroke-linecap="round">
    <path d="M18 561a6 6 0 1 0 1.8-4.3M18.8 553v4h4"/>
  </g>
  <text x="36" y="562" font-size="10" font-family="Consolas, monospace" fill="#9aa49f">v1.13.0</text>
  <text x="82" y="562" font-size="10" fill="#717b76">Up to date</text>
  <rect x="205" y="550" width="46" height="18" rx="4" fill="none" stroke="#46504c"/>
  <text x="228" y="563" font-size="10" fill="#e7ebe8" text-anchor="middle">Check</text>

  <!-- footer -->
  <line x1="1" y1="576" x2="264" y2="576" stroke="#343b38"/>
  <circle cx="21" cy="589" r="3.5" fill="#4fb7a4"/>
  <text x="34" y="592" font-size="9" font-family="Consolas, monospace" fill="#717b76">3 projects  /  6 sessions</text>

  <!-- ══ workspace header ══ -->
  <line x1="264" y1="55" x2="959" y2="55" stroke="#343b38"/>
  <text x="284" y="27" font-size="13.5" font-weight="600" fill="#e7ebe8">atlas</text>
  <text x="322" y="27" font-size="13.5" fill="#717b76">/</text>
  <text x="334" y="27" font-size="13.5" fill="#9aa49f">Claude Code 1</text>
  <text x="284" y="44" font-size="10" font-family="Consolas, monospace" fill="#717b76">C:\work\atlas</text>

  <!-- status pill of the focused pane -->
  <rect x="450" y="18" width="128" height="21" rx="10.5" fill="#2b2416" stroke="#d8a24a"/>
  <circle cx="465" cy="28.5" r="3.5" fill="#d8a24a"/>
  <text x="476" y="32" font-size="10.5" font-weight="600" fill="#d8a24a">awaiting-approval</text>

  <!-- relink + 상세 + launchers -->
  <g fill="none" stroke="#9aa49f" stroke-width="1.3" stroke-linecap="round" stroke-linejoin="round">
    <path d="M596 23h14v9h-14zM596 23l3-4h4l2 4"/>
  </g>
  <rect x="622" y="16" width="58" height="25" rx="6" fill="#252b29" stroke="#46504c"/>
  <text x="651" y="33" font-size="11" fill="#e7ebe8" text-anchor="middle">▤ 상세</text>
  <rect x="688" y="16" width="84" height="25" rx="6" fill="#252b29" stroke="#46504c"/>
  <text x="730" y="33" font-size="10.5" fill="#e7ebe8" text-anchor="middle">⌨ PowerShell</text>
  <rect x="780" y="16" width="88" height="25" rx="6" fill="#252b29" stroke="#46504c"/>
  <text x="824" y="33" font-size="10.5" fill="#e7ebe8" text-anchor="middle">🤖 Claude Code</text>
  <rect x="876" y="16" width="64" height="25" rx="6" fill="#252b29" stroke="#46504c"/>
  <text x="908" y="33" font-size="10.5" fill="#e7ebe8" text-anchor="middle">◆ Codex</text>

  <!-- ══ terminal grid (2×2) ══ -->
  <!-- pane 1 — focused, awaiting approval -->
  <rect x="276" y="68" width="331" height="254" rx="8" fill="#101312" stroke="#4fb7a4"/>
  <path d="M276 76a8 8 0 0 1 8-8h315a8 8 0 0 1 8 8v16H276z" fill="#1c201f"/>
  <line x1="276" y1="92" x2="607" y2="92" stroke="#343b38"/>
  <circle cx="292" cy="80" r="3.5" fill="#d8a24a"/>
  <text x="303" y="84" font-size="11" fill="#9aa49f">🤖</text>
  <text x="321" y="84" font-size="11" fill="#e7ebe8">Claude Code 1</text>
  <rect x="519" y="73" width="22" height="14" rx="3" fill="none" stroke="#46504c"/>
  <text x="530" y="84" font-size="9.5" fill="#9aa49f" text-anchor="middle">+2</text>
  <text x="551" y="84" font-size="10" fill="#717b76">⟳</text>
  <text x="570" y="84" font-size="10" fill="#717b76">⏹</text>
  <text x="589" y="84" font-size="10" fill="#717b76">✕</text>
  <g font-family="Consolas, Cascadia Code, monospace" font-size="10">
    <text x="290" y="112" fill="#717b76">$ claude --resume 3f9a…</text>
    <text x="290" y="131" fill="#e7ebe8">● UTF-8 경계를 무시하고 자릅니다.</text>
    <rect x="290" y="141" width="303" height="56" rx="5" fill="#1c201f" stroke="#d8a24a"/>
    <text x="302" y="158" font-size="9.5" fill="#d8a24a">Edit  terminal-session-manager.ts</text>
    <text x="302" y="175" fill="#d46a6a">- buffer.subarray(overflow)</text>
    <text x="302" y="190" fill="#73b987">+ tailOnUtf8Boundary(buffer)</text>
    <text x="290" y="219" fill="#e7ebe8">이 편집을 적용할까요?</text>
    <text x="290" y="238" fill="#4fb7a4">❯ 1. Yes</text>
    <text x="290" y="255" fill="#9aa49f">  2. No, tell Claude what to do</text>
    <rect x="290" y="266" width="6" height="12" fill="#4fb7a4" opacity="0.85"/>
  </g>

  <!-- pane 2 — codex, working -->
  <rect x="617" y="68" width="331" height="254" rx="8" fill="#101312" stroke="#343b38"/>
  <path d="M617 76a8 8 0 0 1 8-8h315a8 8 0 0 1 8 8v16H617z" fill="#1c201f"/>
  <line x1="617" y1="92" x2="948" y2="92" stroke="#343b38"/>
  <circle cx="633" cy="80" r="3.5" fill="#4fb7a4"/>
  <text x="644" y="84" font-size="11" fill="#9aa49f">◆</text>
  <text x="660" y="84" font-size="11" fill="#e7ebe8">Codex 1</text>
  <text x="892" y="84" font-size="10" fill="#717b76">⟳</text>
  <text x="911" y="84" font-size="10" fill="#717b76">⏹</text>
  <text x="930" y="84" font-size="10" fill="#717b76">✕</text>
  <g font-family="Consolas, Cascadia Code, monospace" font-size="10">
    <text x="631" y="112" fill="#717b76">$ codex resume</text>
    <text x="631" y="131" fill="#9aa49f">· vitest run  src/main/terminal</text>
    <text x="631" y="148" fill="#73b987">  ✓ 651 passed</text>
    <text x="631" y="167" fill="#9aa49f">· 경계 보존 테스트 추가 중…</text>
    <rect x="631" y="178" width="6" height="12" fill="#4fb7a4" opacity="0.85"/>
  </g>

  <!-- pane 3 — powershell, idle -->
  <rect x="276" y="332" width="331" height="254" rx="8" fill="#101312" stroke="#343b38"/>
  <path d="M276 340a8 8 0 0 1 8-8h315a8 8 0 0 1 8 8v16H276z" fill="#1c201f"/>
  <line x1="276" y1="356" x2="607" y2="356" stroke="#343b38"/>
  <circle cx="292" cy="344" r="3.5" fill="#73b987"/>
  <text x="303" y="348" font-size="11" fill="#9aa49f">⌨</text>
  <text x="321" y="348" font-size="11" fill="#e7ebe8">PowerShell 1</text>
  <text x="551" y="348" font-size="10" fill="#717b76">⟳</text>
  <text x="570" y="348" font-size="10" fill="#717b76">⏹</text>
  <text x="589" y="348" font-size="10" fill="#717b76">✕</text>
  <g font-family="Consolas, Cascadia Code, monospace" font-size="10">
    <text x="290" y="376" fill="#9aa49f">PS C:\work\atlas&gt; git status</text>
    <text x="290" y="395" fill="#717b76">On branch main</text>
    <text x="290" y="412" fill="#717b76">nothing to commit, working tree clean</text>
    <text x="290" y="431" fill="#9aa49f">PS C:\work\atlas&gt;</text>
    <rect x="404" y="421" width="6" height="12" fill="#4fb7a4" opacity="0.85"/>
  </g>

  <!-- pane 4 — worktree session, awaiting input -->
  <rect x="617" y="332" width="331" height="254" rx="8" fill="#101312" stroke="#343b38"/>
  <path d="M617 340a8 8 0 0 1 8-8h315a8 8 0 0 1 8 8v16H617z" fill="#1c201f"/>
  <line x1="617" y1="356" x2="948" y2="356" stroke="#343b38"/>
  <circle cx="633" cy="344" r="3.5" fill="#aa8ccc"/>
  <text x="644" y="348" font-size="11" fill="#9aa49f">🤖</text>
  <text x="662" y="348" font-size="11" fill="#e7ebe8">Claude Code 2</text>
  <text x="753" y="348" font-size="9.5" fill="#717b76">⑂ feature-x</text>
  <text x="892" y="348" font-size="10" fill="#717b76">⟳</text>
  <text x="911" y="348" font-size="10" fill="#717b76">⏹</text>
  <text x="930" y="348" font-size="10" fill="#717b76">✕</text>
  <g font-family="Consolas, Cascadia Code, monospace" font-size="10">
    <text x="631" y="376" fill="#717b76">$ claude</text>
    <text x="631" y="395" fill="#e7ebe8">❯ 어느 브랜치에 적용할까요?</text>
    <rect x="631" y="406" width="6" height="12" fill="#4fb7a4" opacity="0.85"/>
  </g>

  <!-- ══ Windows notification toast (a session outside the grid) ══ -->
  <g opacity="0.97">
    <rect x="638" y="470" width="292" height="96" rx="8" fill="#202524" stroke="#46504c"/>
    <rect x="638" y="470" width="4" height="96" rx="2" fill="#d8a24a"/>
    <g transform="translate(658,492) scale(0.72)">
      <rect x="1.32" y="1.32" width="21.36" height="21.36" rx="5.4" fill="#252b29"/>
      <g fill="none" stroke="#4fb7a4" stroke-width="2.6" stroke-linecap="round" stroke-linejoin="round">
        <polyline points="6.6,6.8 12.2,12.1 6.6,17.4"/>
        <line x1="13.4" y1="17.4" x2="18.4" y2="17.4"/>
      </g>
    </g>
    <text x="694" y="500" font-size="11.5" font-weight="600" fill="#e7ebe8">Claude · dashboard</text>
    <text x="694" y="521" font-size="11" fill="#9aa49f">Approval required</text>
    <text x="658" y="551" font-size="9.5" fill="#717b76">그리드에 없는 세션만 알린다 · 클릭하면 해당 세션으로</text>
  </g>
</svg>
